<?xml version="1.0" encoding="UTF-8" standalone="no"?><svg xmlns="http://www.w3.org/2000/svg" xmlns:xlink="http://www.w3.org/1999/xlink" contentScriptType="application/ecmascript" contentStyleType="text/css" height="773px" preserveAspectRatio="none" style="width:609px;height:773px;" version="1.1" viewBox="0 0 609 773" width="609px" zoomAndPan="magnify"><defs/><g><text fill="#000000" font-family="sans-serif" font-size="18" lengthAdjust="spacingAndGlyphs" textLength="186" x="214" y="17.4023">MVVM Class Diagram</text><!--cluster Model--><polygon fill="#FFFFEE" points="96.5,276.1992,146.5,276.1992,153.5,298.6875,587.5,298.6875,587.5,761.1992,96.5,761.1992,96.5,276.1992" style="stroke: #000000; stroke-width: 1.5;"/><line style="stroke: #000000; stroke-width: 1.5;" x1="96.5" x2="153.5" y1="298.6875" y2="298.6875"/><text fill="#000000" font-family="sans-serif" font-size="14" font-weight="bold" lengthAdjust="spacingAndGlyphs" textLength="44" x="100.5" y="291.7344">Model</text><!--class UseCase--><rect fill="#FEFECE" height="52.9551" id="UseCase" style="stroke: #A80036; stroke-width: 1.5;" width="116" x="269.5" y="303.1992"/><ellipse cx="300.25" cy="319.1992" fill="#ADD1B2" rx="11" ry="11" style="stroke: #A80036; stroke-width: 1.0;"/><path d="M302.7231,325.3423 Q302.1421,325.6411 301.5029,325.7905 Q300.8638,325.9399 300.1582,325.9399 Q297.6514,325.9399 296.3315,324.2881 Q295.0117,322.6362 295.0117,319.5151 Q295.0117,316.3857 296.3315,314.7339 Q297.6514,313.082 300.1582,313.082 Q300.8638,313.082 301.5112,313.2314 Q302.1587,313.3809 302.7231,313.6797 L302.7231,316.4023 Q302.0923,315.8213 301.4988,315.5515 Q300.9053,315.2817 300.2744,315.2817 Q298.9297,315.2817 298.2449,316.3484 Q297.5601,317.415 297.5601,319.5151 Q297.5601,321.6069 298.2449,322.6736 Q298.9297,323.7402 300.2744,323.7402 Q300.9053,323.7402 301.4988,323.4705 Q302.0923,323.2007 302.7231,322.6196 Z "/><text fill="#000000" font-family="sans-serif" font-size="12" lengthAdjust="spacingAndGlyphs" textLength="49" x="317.75" y="323.7344">UseCase</text><line style="stroke: #A80036; stroke-width: 1.5;" x1="270.5" x2="384.5" y1="335.1992" y2="335.1992"/><text fill="#000000" font-family="sans-serif" font-size="11" lengthAdjust="spacingAndGlyphs" textLength="104" x="275.5" y="349.834">init(protocolを注入)</text><!--class Request--><rect fill="#FEFECE" height="52.9551" id="Request" style="stroke: #A80036; stroke-width: 1.5;" width="159" x="120" y="495.1992"/><ellipse cx="148.05" cy="511.1992" fill="#87CEEB" rx="11" ry="11" style="stroke: #A80036; stroke-width: 1.0;"/><path d="M147.2834,512.2622 Q145.4323,511.5566 144.7766,510.7805 Q144.1208,510.0044 144.1208,508.6929 Q144.1208,507.0078 145.1999,506.0449 Q146.279,505.082 148.1633,505.082 Q149.0183,505.082 149.8732,505.2771 Q150.7282,505.4722 151.5666,505.854 L151.5666,508.2446 Q150.778,507.6885 149.9646,507.3979 Q149.1511,507.1074 148.3542,507.1074 Q147.466,507.1074 146.9929,507.4644 Q146.5197,507.8213 146.5197,508.4854 Q146.5197,509 146.8642,509.3362 Q147.2087,509.6724 148.3044,510.0791 L149.3586,510.4775 Q150.8527,511.0254 151.5583,511.9302 Q152.2639,512.835 152.2639,514.2129 Q152.2639,516.0889 151.1557,517.0144 Q150.0476,517.9399 147.8063,517.9399 Q146.885,517.9399 145.9594,517.72 Q145.0339,517.5 144.1706,517.0684 L144.1706,514.5366 Q145.1501,515.2339 146.0673,515.5742 Q146.9846,515.9146 147.8811,515.9146 Q148.7858,515.9146 149.2839,515.5037 Q149.7819,515.0928 149.7819,514.354 Q149.7819,513.7979 149.4499,513.3787 Q149.1179,512.9595 148.487,512.7188 Z "/><text fill="#000000" font-family="sans-serif" font-size="12" lengthAdjust="spacingAndGlyphs" textLength="47" x="164.95" y="515.7344">Request</text><rect fill="#FFFFFF" height="16.1328" style="stroke: #000000; stroke-width: 1.0; stroke-dasharray: 2.0,2.0;" width="49" x="233" y="492.1992"/><text fill="#000000" font-family="sans-serif" font-size="12" font-style="italic" lengthAdjust="spacingAndGlyphs" textLength="47" x="234" y="504.8008">Request</text><line style="stroke: #A80036; stroke-width: 1.5;" x1="121" x2="278" y1="527.1992" y2="527.1992"/><text fill="#000000" font-family="sans-serif" font-size="11" lengthAdjust="spacingAndGlyphs" textLength="147" x="126" y="541.834">typealias Response = Entity</text><!--class Repository--><rect fill="#FEFECE" height="32" id="Repository" style="stroke: #A80036; stroke-width: 1.5;" width="93" x="401" y="505.6992"/><ellipse cx="416" cy="521.6992" fill="#FFC0CB" rx="11" ry="11" style="stroke: #A80036; stroke-width: 1.0;"/><path d="M414.7935,517.8647 L414.7935,521.5005 L415.7979,521.5005 Q417.0015,521.5005 417.4871,521.0938 Q417.9727,520.687 417.9727,519.6826 Q417.9727,518.6782 417.4871,518.2715 Q417.0015,517.8647 415.7979,517.8647 Z M412.3447,515.8062 L415.7065,515.8062 Q418.2715,515.8062 419.3962,516.7192 Q420.521,517.6323 420.521,519.6826 Q420.521,521.7329 419.3962,522.646 Q418.2715,523.5591 415.7065,523.5591 L414.7935,523.5591 L414.7935,528.1992 L412.3447,528.1992 Z "/><text fill="#000000" font-family="sans-serif" font-size="12" lengthAdjust="spacingAndGlyphs" textLength="61" x="430" y="526.2344">Repository</text><!--class RepositoryImpl--><rect fill="#FEFECE" height="32" id="RepositoryImpl" style="stroke: #A80036; stroke-width: 1.5;" width="118" x="446.5" y="704.1992"/><ellipse cx="461.5" cy="720.1992" fill="#ADD1B2" rx="11" ry="11" style="stroke: #A80036; stroke-width: 1.0;"/><path d="M463.9731,726.3423 Q463.3921,726.6411 462.7529,726.7905 Q462.1138,726.9399 461.4082,726.9399 Q458.9014,726.9399 457.5815,725.2881 Q456.2617,723.6362 456.2617,720.5151 Q456.2617,717.3857 457.5815,715.7339 Q458.9014,714.082 461.4082,714.082 Q462.1138,714.082 462.7612,714.2314 Q463.4087,714.3809 463.9731,714.6797 L463.9731,717.4023 Q463.3423,716.8213 462.7488,716.5515 Q462.1553,716.2817 461.5244,716.2817 Q460.1797,716.2817 459.4949,717.3484 Q458.8101,718.415 458.8101,720.5151 Q458.8101,722.6069 459.4949,723.6736 Q460.1797,724.7402 461.5244,724.7402 Q462.1553,724.7402 462.7488,724.4705 Q463.3423,724.2007 463.9731,723.6196 Z "/><text fill="#000000" font-family="sans-serif" font-size="12" lengthAdjust="spacingAndGlyphs" textLength="86" x="475.5" y="724.7344">RepositoryImpl</text><!--class Entity--><rect fill="#FEFECE" height="65.9102" id="Entity" style="stroke: #A80036; stroke-width: 1.5;" width="73" x="240" y="687.1992"/><ellipse cx="259.5" cy="703.1992" fill="#98FB98" rx="11" ry="11" style="stroke: #A80036; stroke-width: 1.0;"/><path d="M258.7334,704.2622 Q256.8823,703.5566 256.2266,702.7805 Q255.5708,702.0044 255.5708,700.6929 Q255.5708,699.0078 256.6499,698.0449 Q257.729,697.082 259.6133,697.082 Q260.4683,697.082 261.3232,697.2771 Q262.1782,697.4722 263.0166,697.854 L263.0166,700.2446 Q262.228,699.6885 261.4146,699.3979 Q260.6011,699.1074 259.8042,699.1074 Q258.916,699.1074 258.4429,699.4644 Q257.9697,699.8213 257.9697,700.4854 Q257.9697,701 258.3142,701.3362 Q258.6587,701.6724 259.7544,702.0791 L260.8086,702.4775 Q262.3027,703.0254 263.0083,703.9302 Q263.7139,704.835 263.7139,706.2129 Q263.7139,708.0889 262.6057,709.0144 Q261.4976,709.9399 259.2563,709.9399 Q258.335,709.9399 257.4094,709.72 Q256.4839,709.5 255.6206,709.0684 L255.6206,706.5366 Q256.6001,707.2339 257.5173,707.5742 Q258.4346,707.9146 259.3311,707.9146 Q260.2358,707.9146 260.7339,707.5037 Q261.2319,707.0928 261.2319,706.354 Q261.2319,705.7979 260.8999,705.3787 Q260.5679,704.9595 259.937,704.7188 Z "/><text fill="#000000" font-family="sans-serif" font-size="12" lengthAdjust="spacingAndGlyphs" textLength="31" x="274.5" y="707.7344">Entity</text><line style="stroke: #A80036; stroke-width: 1.5;" x1="241" x2="312" y1="719.1992" y2="719.1992"/><text fill="#000000" font-family="sans-serif" font-size="11" lengthAdjust="spacingAndGlyphs" textLength="20" x="246" y="733.834">title</text><text fill="#000000" font-family="sans-serif" font-size="11" lengthAdjust="spacingAndGlyphs" textLength="61" x="246" y="746.7891">description</text><!--class View--><rect fill="#FEFECE" height="32" id="View" style="stroke: #A80036; stroke-width: 1.5;" width="59" x="298" y="33.6992"/><ellipse cx="313" cy="49.6992" fill="#ADD1B2" rx="11" ry="11" style="stroke: #A80036; stroke-width: 1.0;"/><path d="M315.4731,55.8423 Q314.8921,56.1411 314.2529,56.2905 Q313.6138,56.4399 312.9082,56.4399 Q310.4014,56.4399 309.0815,54.7881 Q307.7617,53.1362 307.7617,50.0151 Q307.7617,46.8857 309.0815,45.2339 Q310.4014,43.582 312.9082,43.582 Q313.6138,43.582 314.2612,43.7314 Q314.9087,43.8809 315.4731,44.1797 L315.4731,46.9023 Q314.8423,46.3213 314.2488,46.0515 Q313.6553,45.7817 313.0244,45.7817 Q311.6797,45.7817 310.9949,46.8484 Q310.3101,47.915 310.3101,50.0151 Q310.3101,52.1069 310.9949,53.1736 Q311.6797,54.2402 313.0244,54.2402 Q313.6553,54.2402 314.2488,53.9705 Q314.8423,53.7007 315.4731,53.1196 Z "/><text fill="#000000" font-family="sans-serif" font-size="12" lengthAdjust="spacingAndGlyphs" textLength="27" x="327" y="54.2344">View</text><path d="M6,29.1992 L6,69.8203 A0,0 0 0 0 6,69.8203 L263,69.8203 A0,0 0 0 0 263,69.8203 L263,53.6992 L297.7884,49.6992 L263,45.6992 L263,39.1992 L253,29.1992 L6,29.1992 A0,0 0 0 0 6,29.1992 " fill="#FBFB77" style="stroke: #A80036; stroke-width: 1.0;"/><path d="M253,29.1992 L253,39.1992 L263,39.1992 L253,29.1992 " fill="#FBFB77" style="stroke: #A80036; stroke-width: 1.0;"/><text fill="#000000" font-family="sans-serif" font-size="13" lengthAdjust="spacingAndGlyphs" textLength="184" x="12" y="46.7676">ViewModelにイベントを伝える</text><text fill="#000000" font-family="sans-serif" font-size="13" lengthAdjust="spacingAndGlyphs" textLength="236" x="12" y="62.0781">ViewModelから受け取ったデータの反映</text><!--class ViewModel--><rect fill="#FEFECE" height="73.9102" id="ViewModel" style="stroke: #A80036; stroke-width: 1.5;" width="112" x="271.5" y="147.1992"/><ellipse cx="294.6" cy="163.1992" fill="#ADD1B2" rx="11" ry="11" style="stroke: #A80036; stroke-width: 1.0;"/><path d="M297.0731,169.3423 Q296.4921,169.6411 295.8529,169.7905 Q295.2138,169.9399 294.5082,169.9399 Q292.0014,169.9399 290.6815,168.2881 Q289.3617,166.6362 289.3617,163.5151 Q289.3617,160.3857 290.6815,158.7339 Q292.0014,157.082 294.5082,157.082 Q295.2138,157.082 295.8612,157.2314 Q296.5087,157.3809 297.0731,157.6797 L297.0731,160.4023 Q296.4423,159.8213 295.8488,159.5515 Q295.2553,159.2817 294.6244,159.2817 Q293.2797,159.2817 292.5949,160.3484 Q291.9101,161.415 291.9101,163.5151 Q291.9101,165.6069 292.5949,166.6736 Q293.2797,167.7402 294.6244,167.7402 Q295.2553,167.7402 295.8488,167.4705 Q296.4423,167.2007 297.0731,166.6196 Z "/><text fill="#000000" font-family="sans-serif" font-size="12" lengthAdjust="spacingAndGlyphs" textLength="62" x="310.4" y="167.7344">ViewModel</text><line style="stroke: #A80036; stroke-width: 1.5;" x1="272.5" x2="382.5" y1="179.1992" y2="179.1992"/><text fill="#000000" font-family="sans-serif" font-size="11" lengthAdjust="spacingAndGlyphs" textLength="59" x="277.5" y="193.834">someEntity</text><line style="stroke: #A80036; stroke-width: 1.5;" x1="272.5" x2="382.5" y1="200.1543" y2="200.1543"/><text fill="#000000" font-family="sans-serif" font-size="11" lengthAdjust="spacingAndGlyphs" textLength="100" x="277.5" y="214.7891">init(someUseCase)</text><path d="M46.5,163.6992 L46.5,204.3203 A0,0 0 0 0 46.5,204.3203 L236.5,204.3203 A0,0 0 0 0 236.5,204.3203 L236.5,188.1992 L271.4468,184.1992 L236.5,180.1992 L236.5,173.6992 L226.5,163.6992 L46.5,163.6992 A0,0 0 0 0 46.5,163.6992 " fill="#FBFB77" style="stroke: #A80036; stroke-width: 1.0;"/><path d="M226.5,163.6992 L226.5,173.6992 L236.5,173.6992 L226.5,163.6992 " fill="#FBFB77" style="stroke: #A80036; stroke-width: 1.0;"/><text fill="#000000" font-family="sans-serif" font-size="13" lengthAdjust="spacingAndGlyphs" textLength="169" x="52.5" y="181.2676">Viewで表示するEntityの公開</text><text fill="#000000" font-family="sans-serif" font-size="13" lengthAdjust="spacingAndGlyphs" textLength="116" x="52.5" y="196.5781">Modelに処理を依頼</text><!--link View to ViewModel--><path d="M303.8518,65.772 C288.3384,78.4977 272.0251,97.3774 278.5,117.1992 C281.3694,125.9833 285.8757,134.5707 291.0189,142.5087 " fill="none" id="View-ViewModel" style="stroke: #A80036; stroke-width: 1.0;"/><polygon fill="#A80036" points="293.9355,146.849,292.2359,137.1479,291.1468,142.6989,285.5958,141.6098,293.9355,146.849" style="stroke: #A80036; stroke-width: 1.0;"/><text fill="#000000" font-family="sans-serif" font-size="13" lengthAdjust="spacingAndGlyphs" textLength="51" x="279.5" y="113.7676">UI Event</text><!--link View to ViewModel--><path d="M331.647,71.0697 C333.1871,80.0303 334.743,90.5825 335.5,100.1992 C336.7071,115.5336 335.5781,132.4201 333.8264,147.0059 " fill="none" id="View-ViewModel-1" style="stroke: #A80036; stroke-width: 1.0;"/><polygon fill="#A80036" points="330.7481,65.9969,328.3798,75.5568,331.6205,70.9202,336.2571,74.1609,330.7481,65.9969" style="stroke: #A80036; stroke-width: 1.0;"/><text fill="#000000" font-family="sans-serif" font-size="13" lengthAdjust="spacingAndGlyphs" textLength="80" x="336.5" y="113.7676">Data Binding</text><!--link ViewModel to UseCase--><path d="M293.9355,221.5494 C287.6009,230.6539 281.9007,240.7884 278.5,251.1992 C272.9371,268.2293 281.5186,285.3182 292.9773,299.1832 " fill="none" id="ViewModel-UseCase" style="stroke: #A80036; stroke-width: 1.0;"/><polygon fill="#A80036" points="296.2762,303.0056,293.4241,293.5788,293.0094,299.2204,287.3678,298.8057,296.2762,303.0056" style="stroke: #A80036; stroke-width: 1.0;"/><text fill="#000000" font-family="sans-serif" font-size="13" lengthAdjust="spacingAndGlyphs" textLength="50" x="279.5" y="264.7676">Request</text><!--link ViewModel to UseCase--><path d="M333.3492,226.6018 C334.5624,239.9074 335.2683,254.6561 334.5,268.1992 C333.8488,279.679 332.5191,292.3063 331.1918,303.1164 " fill="none" id="ViewModel-UseCase-1" style="stroke: #A80036; stroke-width: 1.0;"/><polygon fill="#A80036" points="332.8415,221.3856,329.7323,230.7308,333.3259,226.3621,337.6947,229.9557,332.8415,221.3856" style="stroke: #A80036; stroke-width: 1.0;"/><text fill="#000000" font-family="sans-serif" font-size="13" lengthAdjust="spacingAndGlyphs" textLength="29" x="335.5" y="264.7676">Data</text><!--link UseCase to Request--><path d="M269.114,344.8401 C232.6701,357.6417 188.6137,380.0123 166.5,417.1992 C152.973,439.9465 163.8903,468.8279 176.6808,490.4606 " fill="none" id="UseCase-Request" style="stroke: #A80036; stroke-width: 1.0;"/><polygon fill="#A80036" points="179.4304,494.9619,178.1523,485.1963,176.8239,490.695,171.3253,489.3667,179.4304,494.9619" style="stroke: #A80036; stroke-width: 1.0;"/><text fill="#000000" font-family="sans-serif" font-size="13" lengthAdjust="spacingAndGlyphs" textLength="50" x="167.5" y="430.7676">Request</text><!--link UseCase to Request--><path d="M306.759,360.8107 C281.943,398.0347 240.8136,459.7289 217.3526,494.9204 " fill="none" id="UseCase-Request-1" style="stroke: #A80036; stroke-width: 1.0;"/><polygon fill="#A80036" points="309.7021,356.396,301.3816,361.6656,306.9286,360.5562,308.0379,366.1033,309.7021,356.396" style="stroke: #A80036; stroke-width: 1.0;"/><text fill="#000000" font-family="sans-serif" font-size="13" lengthAdjust="spacingAndGlyphs" textLength="60" x="269.5" y="430.7676">Response</text><!--link UseCase to Repository--><path d="M344.1855,356.396 C368.3455,395.052 412.5685,465.8089 434.4819,500.8703 " fill="none" id="UseCase-Repository" style="stroke: #A80036; stroke-width: 1.0;"/><polygon fill="#A80036" points="437.2948,505.3708,435.9168,495.6188,434.6448,501.1308,429.1328,499.8588,437.2948,505.3708" style="stroke: #A80036; stroke-width: 1.0;"/><text fill="#000000" font-family="sans-serif" font-size="13" lengthAdjust="spacingAndGlyphs" textLength="36" x="392.5" y="430.7676">CRUD</text><!--link UseCase to Repository--><path d="M380.9065,359.1629 C402.1488,373.7458 424.5717,393.3711 437.5,417.1992 C452.7102,445.2329 451.7982,483.7722 449.6983,505.3538 " fill="none" id="UseCase-Repository-1" style="stroke: #A80036; stroke-width: 1.0;"/><polygon fill="#A80036" points="376.6769,356.3138,381.9065,364.6595,380.8238,359.1073,386.3761,358.0245,376.6769,356.3138" style="stroke: #A80036; stroke-width: 1.0;"/><text fill="#000000" font-family="sans-serif" font-size="13" lengthAdjust="spacingAndGlyphs" textLength="76" x="444.5" y="430.7676">Data, Result</text><!--link Request to Entity--><path d="M204.587,548.4383 C209.0966,569.8809 216.5175,600.5266 226.5,626.1992 C233.9703,645.411 244.4201,665.7221 253.836,682.5292 " fill="none" id="Request-Entity" style="stroke: #A80036; stroke-width: 1.0;"/><polygon fill="#A80036" points="256.4611,687.1729,255.5145,677.3697,254.0007,682.8202,248.5501,681.3064,256.4611,687.1729" style="stroke: #A80036; stroke-width: 1.0;"/><text fill="#000000" font-family="sans-serif" font-size="13" lengthAdjust="spacingAndGlyphs" textLength="81" x="227.5" y="622.7676">Knows about</text><!--link Repository to Entity--><path d="M433.5064,537.9433 C406.329,569.4913 345.7939,639.7615 308.333,683.2469 " fill="none" id="Repository-Entity" style="stroke: #A80036; stroke-width: 1.0;"/><polygon fill="#A80036" points="305.0057,687.1092,313.9104,682.9013,308.2691,683.3211,307.8494,677.6798,305.0057,687.1092" style="stroke: #A80036; stroke-width: 1.0;"/><text fill="#000000" font-family="sans-serif" font-size="13" lengthAdjust="spacingAndGlyphs" textLength="81" x="371.5" y="622.7676">Knows about</text><!--link Repository to RepositoryImpl--><path d="M457.8702,557.1905 C470.5458,600.5713 491.4552,672.132 500.7694,704.0091 " fill="none" id="Repository-RepositoryImpl" style="stroke: #A80036; stroke-width: 1.0;"/><polygon fill="none" points="451.1367,559.1039,452.2464,537.9433,464.5748,555.1773,451.1367,559.1039" style="stroke: #A80036; stroke-width: 1.0;"/><text fill="#000000" font-family="sans-serif" font-size="13" lengthAdjust="spacingAndGlyphs" textLength="26" x="477.5" y="622.7676">実現</text><!--
@startuml MVVM_ClassDiagram
title MVVM Class Diagram

class View {

}
note left: ViewModelにイベントを伝える\nViewModelから受け取ったデータの反映

class ViewModel {
    someEntity
    init(someUseCase)
}
note left: Viewで表示するEntityの公開\nModelに処理を依頼

package Model #ffe {
    class UseCase {
        init(protocolを注入)
    }

    class Request <Request> << (S, SkyBlue) >> {
        typealias Response = Entity
    }

    class Repository << (P, Pink) >> {

    }
    class RepositoryImpl {

    }

    class Entity << (S, PaleGreen) >> {
        title
        description
    }
}
View - -> ViewModel: UI Event
View <- - ViewModel: Data Binding

ViewModel - -> UseCase: Request
ViewModel <- - UseCase: Data

UseCase - -> Request: Request
UseCase <- - Request: Response

UseCase - -> Repository: CRUD
UseCase <- - Repository: Data, Result

Request - -> Entity: Knows about
Repository - -> Entity: Knows about
Repository <|- - RepositoryImpl: 実現

hide empty members
skinparam shadowing false

@enduml

PlantUML version 1.2019.06(Sat May 25 02:10:25 JST 2019)
(GPL source distribution)
Java Runtime: Java(TM) SE Runtime Environment
JVM: Java HotSpot(TM) 64-Bit Server VM
Java Version: 1.8.0_201-b09
Operating System: Mac OS X
OS Version: 10.14.5
Default Encoding: UTF-8
Language: ja
Country: JP
--></g></svg>